<svg width="98" height="98" viewBox="0 0 98 98" fill="none" xmlns="http://www.w3.org/2000/svg">
<mask id="mask0_0_471" style="mask-type:alpha" maskUnits="userSpaceOnUse" x="0" y="0" width="98" height="98">
<rect width="98" height="98" fill="#D9D9D9"/>
</mask>
<g mask="url(#mask0_0_471)">
<path d="M48.9745 12.25C54.0644 12.25 58.8408 13.2171 63.3039 15.1512C67.7663 17.086 71.6557 19.7116 74.972 23.028C78.2884 26.3443 80.914 30.2306 82.8488 34.6869C84.7829 39.1439 85.75 43.9231 85.75 49.0245C85.75 54.0654 84.7829 58.8211 82.8488 63.2917C80.914 67.7622 78.2884 71.6557 74.972 74.972C71.6557 78.2884 67.7694 80.914 63.3131 82.8488C58.8562 84.7829 54.0769 85.75 48.9755 85.75C43.9346 85.75 39.1826 84.787 34.7196 82.8611C30.2565 80.9351 26.3586 78.3061 23.0259 74.9741C19.6939 71.6414 17.0649 67.7435 15.139 63.2804C13.213 58.8174 12.25 54.0654 12.25 49.0245C12.25 43.9231 13.2171 39.1439 15.1512 34.6869C17.086 30.2306 19.7116 26.3443 23.028 23.028C26.3443 19.7116 30.2408 17.086 34.7175 15.1512C39.1935 13.2171 43.9459 12.25 48.9745 12.25ZM49 81.6667C58.0514 81.6667 65.7587 78.4851 72.1219 72.1219C78.4851 65.7587 81.6667 58.0514 81.6667 49C81.6667 39.9486 78.4851 32.2413 72.1219 25.8781C65.7587 19.5149 58.0514 16.3333 49 16.3333C39.9486 16.3333 32.2413 19.5149 25.8781 25.8781C19.5149 32.2413 16.3333 39.9486 16.3333 49C16.3333 58.0514 19.5149 65.7587 25.8781 72.1219C32.2413 78.4851 39.9486 81.6667 49 81.6667ZM42.09 31.7244C42.09 33.6559 42.7586 35.2906 44.0959 36.6285C45.4339 37.9658 47.0686 38.6345 49 38.6345C50.9314 38.6345 52.5661 37.9658 53.9041 36.6285C55.2414 35.2906 55.91 33.6559 55.91 31.7244C55.91 29.7923 55.2414 28.1576 53.9041 26.8204C52.5661 25.4831 50.9314 24.8144 49 24.8144C47.0686 24.8144 45.4339 25.4831 44.0959 26.8204C42.7586 28.1576 42.09 29.7923 42.09 31.7244ZM49 42.09C45.9477 42.09 42.5933 42.8386 38.9366 44.3358C35.28 45.833 33.4517 47.9635 33.4517 50.7273V64.5483C33.4517 67.1215 35.2684 69.2857 38.9019 71.0408C42.5347 72.7953 46.4765 73.4946 50.7273 73.1386V66.201C48.7421 66.3167 46.8702 66.1721 45.1116 65.7672C43.3538 65.3629 41.7705 64.7368 40.3617 63.8889C40.5979 62.5849 41.6058 61.5052 43.3854 60.6497C45.1651 59.7936 47.0366 59.3655 49 59.3655C50.9634 59.3655 52.8938 59.8052 54.7912 60.6845C56.6893 61.5637 57.6383 62.6788 57.6383 64.0297V71.6155C60.1087 70.788 61.8782 69.7267 62.9466 68.4316C64.0144 67.1358 64.5483 65.8414 64.5483 64.5483V50.7273C64.5483 47.9635 62.72 45.833 59.0634 44.3358C55.4068 42.8386 52.0523 42.09 49 42.09ZM48.9888 57.6383C47.7767 57.6383 46.7555 57.2194 45.9253 56.3816C45.0957 55.5446 44.6809 54.52 44.6809 53.3079C44.6809 52.0952 45.0994 51.074 45.9365 50.2444C46.7736 49.4148 47.7985 49 49.0112 49C50.2233 49 51.2445 49.4185 52.0748 50.2556C52.9044 51.0927 53.3191 52.1176 53.3191 53.3304C53.3191 54.5424 52.9006 55.5633 52.0635 56.3929C51.2264 57.2232 50.2015 57.6383 48.9888 57.6383Z" fill="#121217"/>
</g>
</svg>
