<svg width="66" height="65" viewBox="0 0 66 65" fill="none" xmlns="http://www.w3.org/2000/svg">
<mask id="mask0_0_510" style="mask-type:alpha" maskUnits="userSpaceOnUse" x="0" y="0" width="66" height="65">
<rect width="66" height="65" fill="#D9D9D9"/>
</mask>
<g mask="url(#mask0_0_510)">
<path d="M32.9746 56.875C29.56 56.875 26.351 56.2336 23.3475 54.9507C20.3445 53.6674 17.7279 51.9298 15.4976 49.7379C13.2674 47.5459 11.5019 44.9685 10.2011 42.0056C8.90038 39.0422 8.25 35.8759 8.25 32.5068C8.25 29.1376 8.89969 25.9693 10.1991 23.0019C11.4984 20.0349 13.2619 17.4539 15.4894 15.2587C17.7169 13.0636 20.3363 11.326 23.3475 10.0459C26.3588 8.76529 29.5763 8.125 33 8.125C35.8146 8.125 38.4775 8.55382 40.9888 9.41146C43.5004 10.2691 45.7909 11.4653 47.8603 13L45.8824 15.0157C44.0706 13.689 42.0773 12.6603 39.9025 11.9295C37.7282 11.1987 35.4273 10.8333 33 10.8333C26.9042 10.8333 21.7135 12.9436 17.4281 17.1641C13.1427 21.3845 11 26.4965 11 32.5C11 38.5035 13.1427 43.6155 17.4281 47.8359C21.7135 52.0564 26.9042 54.1667 33 54.1667C34.6078 54.1667 36.1696 53.9965 37.6853 53.6561C39.2015 53.3158 40.6542 52.8455 42.0434 52.2451L44.1059 54.2919C42.438 55.1252 40.6698 55.7639 38.8011 56.2081C36.933 56.6527 34.9908 56.875 32.9746 56.875ZM53.625 52.8125V44.6875H45.375V41.9792H53.625V33.8542H56.375V41.9792H64.625V44.6875H56.375V52.8125H53.625ZM29.0441 43.0835L19.2603 33.4479L21.2066 31.5311L29.0441 39.2498L55.8037 12.8802L57.75 14.797L29.0441 43.0835Z" fill="#121217"/>
</g>
</svg>
