<svg width="98" height="98" viewBox="0 0 98 98" fill="none" xmlns="http://www.w3.org/2000/svg">
<mask id="mask0_0_465" style="mask-type:alpha" maskUnits="userSpaceOnUse" x="0" y="0" width="98" height="98">
<rect width="98" height="98" fill="#D9D9D9"/>
</mask>
<g mask="url(#mask0_0_465)">
<path d="M28.5833 37.881L21.2803 41.9327C20.4847 42.3723 19.6994 42.4952 18.9242 42.3012C18.1497 42.1079 17.5427 41.6135 17.1031 40.8179L12.0775 32.0224C11.6379 31.2269 11.5147 30.4286 11.7079 29.6276C11.9019 28.8265 12.3967 28.2062 13.1922 27.7666L32.5881 16.3333H37.535C38.3047 16.3333 38.9159 16.5595 39.3685 17.0121C39.8217 17.4654 40.0483 18.0768 40.0483 18.8465V19.6316C40.0483 22.0346 40.9395 24.1273 42.7219 25.9097C44.5043 27.6921 46.597 28.5833 49 28.5833C51.4031 28.5833 53.4958 27.6921 55.2781 25.9097C57.0605 24.1273 57.9517 22.0346 57.9517 19.6316V18.8465C57.9517 18.0768 58.1783 17.4654 58.6316 17.0121C59.0841 16.5595 59.6953 16.3333 60.465 16.3333H65.412L84.8078 27.7666C85.6034 28.2062 86.0981 28.8265 86.2921 29.6276C86.4854 30.4286 86.3622 31.2269 85.9225 32.0224L80.897 40.8179C80.4573 41.6135 79.854 42.1042 79.087 42.29C78.32 42.4758 77.5309 42.3488 76.7197 41.9092L69.4167 37.9045V78.5255C69.4167 79.4204 69.1169 80.1677 68.5173 80.7672C67.9178 81.3668 67.1705 81.6666 66.2756 81.6666H31.7244C30.8295 81.6666 30.0823 81.3668 29.4827 80.7672C28.8831 80.1677 28.5833 79.4204 28.5833 78.5255V37.881ZM32.6667 31.0333V77.5833H65.3333V31.0333L77.8345 37.8963L81.9648 30.8291L64.485 20.4635H61.8942C61.6587 23.882 60.3251 26.7706 57.8935 29.1294C55.4612 31.4875 52.4967 32.6666 49 32.6666C45.5033 32.6666 42.5388 31.4875 40.1065 29.1294C37.6749 26.7706 36.3413 23.882 36.1059 20.4635H33.515L16.0353 30.8291L20.1656 37.8963L32.6667 31.0333Z" fill="#121217"/>
</g>
</svg>
