<svg width="30" height="30" viewBox="0 0 30 30" fill="none" xmlns="http://www.w3.org/2000/svg">
<rect width="30" height="30" rx="15" fill="black"/>
<path d="M14.9999 8.85591C16.9878 8.85591 17.2589 8.85591 18.0722 8.85591C18.7951 8.85591 19.1565 9.03663 19.4276 9.12699C19.789 9.30772 20.0601 9.39808 20.3312 9.66916C20.6023 9.94025 20.783 10.2113 20.8734 10.5728C20.9637 10.8439 21.0541 11.2053 21.1445 11.9282C21.1445 12.7415 21.1445 12.9222 21.1445 15.0005C21.1445 17.0788 21.1445 17.2595 21.1445 18.0728C21.1445 18.7957 20.9637 19.1571 20.8734 19.4282C20.6926 19.7896 20.6023 20.0607 20.3312 20.3318C20.0601 20.6029 19.789 20.7836 19.4276 20.874C19.1565 20.9643 18.7951 21.0547 18.0722 21.1451C17.2589 21.1451 17.0782 21.1451 14.9999 21.1451C12.9216 21.1451 12.7408 21.1451 11.9276 21.1451C11.2047 21.1451 10.8433 20.9643 10.5722 20.874C10.2107 20.6933 9.93964 20.6029 9.66855 20.3318C9.39747 20.0607 9.21675 19.7896 9.12638 19.4282C9.03602 19.1571 8.94566 18.7957 8.8553 18.0728C8.8553 17.2595 8.8553 17.0788 8.8553 15.0005C8.8553 12.9222 8.8553 12.7415 8.8553 11.9282C8.8553 11.2053 9.03602 10.8439 9.12638 10.5728C9.30711 10.2113 9.39747 9.94025 9.66855 9.66916C9.93964 9.39808 10.2107 9.21736 10.5722 9.12699C10.8433 9.03663 11.2047 8.94627 11.9276 8.85591C12.7408 8.85591 13.0119 8.85591 14.9999 8.85591ZM14.9999 7.50049C12.9216 7.50049 12.7408 7.50049 11.9276 7.50049C11.1143 7.50049 10.5722 7.68121 10.1204 7.86193C9.66855 8.04266 9.21675 8.31374 8.76494 8.76555C8.31313 9.21736 8.13241 9.5788 7.86132 10.121C7.6806 10.5728 7.59024 11.1149 7.49988 11.9282C7.49988 12.7415 7.49988 13.0125 7.49988 15.0005C7.49988 17.0788 7.49988 17.2595 7.49988 18.0728C7.49988 18.886 7.6806 19.4282 7.86132 19.88C8.04205 20.3318 8.31313 20.7836 8.76494 21.2354C9.21675 21.6872 9.57819 21.868 10.1204 22.139C10.5722 22.3198 11.1143 22.4101 11.9276 22.5005C12.7408 22.5005 13.0119 22.5005 14.9999 22.5005C16.9878 22.5005 17.2589 22.5005 18.0722 22.5005C18.8854 22.5005 19.4276 22.3198 19.8794 22.139C20.3312 21.9583 20.783 21.6872 21.2348 21.2354C21.6866 20.7836 21.8673 20.4222 22.1384 19.88C22.3192 19.4282 22.4095 18.886 22.4999 18.0728C22.4999 17.2595 22.4999 16.9884 22.4999 15.0005C22.4999 13.0125 22.4999 12.7415 22.4999 11.9282C22.4999 11.1149 22.3192 10.5728 22.1384 10.121C21.9577 9.66916 21.6866 9.21736 21.2348 8.76555C20.783 8.31374 20.4216 8.13302 19.8794 7.86193C19.4276 7.68121 18.8854 7.59085 18.0722 7.50049C17.2589 7.50049 17.0782 7.50049 14.9999 7.50049Z" fill="white"/>
<path d="M14.9999 11.1149C12.8312 11.1149 11.1143 12.8318 11.1143 15.0005C11.1143 17.1692 12.8312 18.886 14.9999 18.886C17.1686 18.886 18.8854 17.1692 18.8854 15.0005C18.8854 12.8318 17.1686 11.1149 14.9999 11.1149ZM14.9999 17.5306C13.6445 17.5306 12.4698 16.4463 12.4698 15.0005C12.4698 13.6451 13.5541 12.4704 14.9999 12.4704C16.3553 12.4704 17.53 13.5547 17.53 15.0005C17.53 16.3559 16.3553 17.5306 14.9999 17.5306Z" fill="white"/>
<path d="M18.9758 11.9282C19.4748 11.9282 19.8794 11.5236 19.8794 11.0246C19.8794 10.5255 19.4748 10.121 18.9758 10.121C18.4767 10.121 18.0722 10.5255 18.0722 11.0246C18.0722 11.5236 18.4767 11.9282 18.9758 11.9282Z" fill="white"/>
</svg>
