<svg width="204" height="29" viewBox="0 0 204 29" fill="none" xmlns="http://www.w3.org/2000/svg">
<path d="M14.5 0L17.7555 10.0193L28.2903 10.0193L19.7674 16.2115L23.0229 26.2307L14.5 20.0385L5.97711 26.2307L9.23257 16.2115L0.709681 10.0193L11.2445 10.0193L14.5 0Z" fill="#121217"/>
<path d="M58 0L61.1432 10.0193L71.3148 10.0193L63.0858 16.2115L66.229 26.2307L58 20.0385L49.771 26.2307L52.9142 16.2115L44.6852 10.0193L54.8568 10.0193L58 0Z" fill="#121217"/>
<path d="M101.5 0L104.755 10.0193L115.29 10.0193L106.767 16.2115L110.023 26.2307L101.5 20.0385L92.9771 26.2307L96.2326 16.2115L87.7097 10.0193L98.2445 10.0193L101.5 0Z" fill="#121217"/>
<path d="M145.5 0L148.755 10.0193L159.29 10.0193L150.767 16.2115L154.023 26.2307L145.5 20.0385L136.977 26.2307L140.233 16.2115L131.71 10.0193L142.245 10.0193L145.5 0Z" fill="#121217"/>
<path d="M189.5 0L192.755 10.0193L203.29 10.0193L194.767 16.2115L198.023 26.2307L189.5 20.0385L180.977 26.2307L184.233 16.2115L175.71 10.0193L186.245 10.0193L189.5 0Z" fill="#121217"/>
</svg>
