<svg width="53" height="53" viewBox="0 0 53 53" fill="none" xmlns="http://www.w3.org/2000/svg">
<mask id="mask0_77_445" style="mask-type:alpha" maskUnits="userSpaceOnUse" x="0" y="0" width="53" height="53">
<rect width="53" height="53" fill="#D9D9D9"/>
</mask>
<g mask="url(#mask0_77_445)">
<path d="M15.4583 48.5834V35.3334H11.925C10.4528 35.3334 9.20139 34.8181 8.17083 33.7876C7.14028 32.757 6.625 31.5056 6.625 30.0334C6.625 28.9661 6.91944 27.9815 7.50833 27.0798C8.09722 26.178 8.87014 25.5063 9.82708 25.0647L24.2917 18.6605V17.2251C22.9667 16.7466 21.8993 15.9461 21.0896 14.8235C20.2799 13.701 19.875 12.4404 19.875 11.0417C19.875 9.20147 20.5191 7.63723 21.8073 6.34904C23.0955 5.06085 24.6597 4.41675 26.5 4.41675C28.3403 4.41675 29.9045 5.06085 31.1927 6.34904C32.4809 7.63723 33.125 9.20147 33.125 11.0417H28.7083C28.7083 10.4161 28.4967 9.89158 28.0734 9.46831C27.6502 9.04505 27.1257 8.83342 26.5 8.83342C25.8743 8.83342 25.3498 9.04505 24.9266 9.46831C24.5033 9.89158 24.2917 10.4161 24.2917 11.0417C24.2917 11.6674 24.5033 12.1919 24.9266 12.6152C25.3498 13.0385 25.8743 13.2501 26.5 13.2501C27.1257 13.2501 27.6502 13.4617 28.0734 13.885C28.4967 14.3082 28.7083 14.8327 28.7083 15.4584V18.6605L43.1729 25.0647C44.1299 25.5063 44.9028 26.178 45.4917 27.0798C46.0806 27.9815 46.375 28.9661 46.375 30.0334C46.375 31.5056 45.8597 32.757 44.8292 33.7876C43.7986 34.8181 42.5472 35.3334 41.075 35.3334H37.5417V48.5834H15.4583ZM11.925 30.9167H15.4583V28.7084H37.5417V30.9167H41.075C41.3326 30.9167 41.5443 30.8247 41.7099 30.6407C41.8755 30.4567 41.9583 30.2174 41.9583 29.923C41.9583 29.739 41.9123 29.5826 41.8203 29.4537C41.7283 29.3249 41.5903 29.2237 41.4062 29.1501L26.5 22.5251L11.5938 29.1501C11.4097 29.2237 11.2717 29.3249 11.1797 29.4537C11.0877 29.5826 11.0417 29.739 11.0417 29.923C11.0417 30.2174 11.1245 30.4567 11.2901 30.6407C11.4557 30.8247 11.6674 30.9167 11.925 30.9167Z" fill="#121217"/>
</g>
</svg>
