<svg width="98" height="98" viewBox="0 0 98 98" fill="none" xmlns="http://www.w3.org/2000/svg">
<mask id="mask0_0_477" style="mask-type:alpha" maskUnits="userSpaceOnUse" x="0" y="0" width="98" height="98">
<rect width="98" height="98" fill="#D9D9D9"/>
</mask>
<g mask="url(#mask0_0_477)">
<path d="M31.6459 85.75V62.5853H23.6987C21.6529 62.5853 19.9138 61.8611 18.4812 60.4129C17.0493 58.9647 16.3334 57.2061 16.3334 55.1373C16.3334 53.6373 16.7339 52.25 17.5349 50.9753C18.3359 49.7006 19.4115 48.7594 20.7618 48.1517L46.9584 36.4672V31.3784C44.718 30.9129 42.8754 29.7992 41.4306 28.0372C39.9857 26.2759 39.2633 24.2591 39.2633 21.9867C39.2633 19.2822 40.2062 16.9833 42.0921 15.09C43.9786 13.1967 46.269 12.25 48.9633 12.25C51.6576 12.25 53.947 13.2055 55.8315 15.1165C57.7166 17.0268 58.6592 19.3169 58.6592 21.9867H54.4186C54.4186 20.3854 53.8994 19.0426 52.8608 17.9585C51.8223 16.8751 50.5354 16.3333 49 16.3333C47.398 16.3333 46.0553 16.8751 44.9718 17.9585C43.8884 19.0426 43.3467 20.3854 43.3467 21.9867C43.3467 23.5887 43.8884 24.9318 44.9718 26.0159C46.0553 27.0994 47.398 27.6411 49 27.6411C49.5785 27.6411 50.0634 27.8368 50.4547 28.2281C50.846 28.6194 51.0417 29.1043 51.0417 29.6828V36.4672L77.1597 48.1517C78.5065 48.7703 79.5944 49.7112 80.4233 50.9743C81.2523 52.2367 81.6667 53.6155 81.6667 55.1107C81.6667 57.1721 80.9429 58.9334 79.4954 60.3945C78.0479 61.855 76.2903 62.5853 74.2228 62.5853H66.3542V85.75H31.6459ZM23.6987 58.5019H31.6459V54.6534H66.3542V58.5019H74.2228C75.1701 58.5019 75.9671 58.1746 76.6136 57.5199C77.2601 56.8659 77.5834 56.057 77.5834 55.0934C77.5834 54.4393 77.4197 53.8231 77.0924 53.2446C76.765 52.6662 76.2743 52.2303 75.6203 51.9369L49 40.08L22.4584 51.9369C21.8037 52.2303 21.2997 52.6662 20.9465 53.2446C20.5933 53.8231 20.4167 54.4393 20.4167 55.0934C20.4167 56.057 20.7243 56.8659 21.3395 57.5199C21.9554 58.1746 22.7418 58.5019 23.6987 58.5019ZM35.7292 81.6667H62.2709V58.7367H35.7292V81.6667Z" fill="#121217"/>
</g>
</svg>
